<svg id="visual" viewBox="0 0 900 600" width="900" height="600" xmlns="http://www.w3.org/2000/svg" xmlns:xlink="http://www.w3.org/1999/xlink" version="1.1"><path d="M0 174L21.5 183.2C43 192.3 86 210.7 128.8 212C171.7 213.3 214.3 197.7 257.2 186.8C300 176 343 170 385.8 172.3C428.7 174.7 471.3 185.3 514.2 195.3C557 205.3 600 214.7 642.8 207.2C685.7 199.7 728.3 175.3 771.2 165.7C814 156 857 161 878.5 163.5L900 166L900 0L878.5 0C857 0 814 0 771.2 0C728.3 0 685.7 0 642.8 0C600 0 557 0 514.2 0C471.3 0 428.7 0 385.8 0C343 0 300 0 257.2 0C214.3 0 171.7 0 128.8 0C86 0 43 0 21.5 0L0 0Z" fill="#3b82f6"></path><path d="M0 125L21.5 131.5C43 138 86 151 128.8 159.7C171.7 168.3 214.3 172.7 257.2 169.5C300 166.3 343 155.7 385.8 153.2C428.7 150.7 471.3 156.3 514.2 166C557 175.7 600 189.3 642.8 184.7C685.7 180 728.3 157 771.2 149C814 141 857 148 878.5 151.5L900 155L900 0L878.5 0C857 0 814 0 771.2 0C728.3 0 685.7 0 642.8 0C600 0 557 0 514.2 0C471.3 0 428.7 0 385.8 0C343 0 300 0 257.2 0C214.3 0 171.7 0 128.8 0C86 0 43 0 21.5 0L0 0Z" fill="#296cc3"></path><path d="M0 93L21.5 101C43 109 86 125 128.8 131.5C171.7 138 214.3 135 257.2 135.8C300 136.7 343 141.3 385.8 133.8C428.7 126.3 471.3 106.7 514.2 103.7C557 100.7 600 114.3 642.8 125C685.7 135.7 728.3 143.3 771.2 145.5C814 147.7 857 144.3 878.5 142.7L900 141L900 0L878.5 0C857 0 814 0 771.2 0C728.3 0 685.7 0 642.8 0C600 0 557 0 514.2 0C471.3 0 428.7 0 385.8 0C343 0 300 0 257.2 0C214.3 0 171.7 0 128.8 0C86 0 43 0 21.5 0L0 0Z" fill="#235592"></path><path d="M0 100L21.5 102C43 104 86 108 128.8 109.5C171.7 111 214.3 110 257.2 110.3C300 110.7 343 112.3 385.8 106.3C428.7 100.3 471.3 86.7 514.2 80.5C557 74.3 600 75.7 642.8 79.7C685.7 83.7 728.3 90.3 771.2 90.5C814 90.7 857 84.3 878.5 81.2L900 78L900 0L878.5 0C857 0 814 0 771.2 0C728.3 0 685.7 0 642.8 0C600 0 557 0 514.2 0C471.3 0 428.7 0 385.8 0C343 0 300 0 257.2 0C214.3 0 171.7 0 128.8 0C86 0 43 0 21.5 0L0 0Z" fill="#223f63"></path><path d="M0 34L21.5 38.8C43 43.7 86 53.3 128.8 54.3C171.7 55.3 214.3 47.7 257.2 47.3C300 47 343 54 385.8 52C428.7 50 471.3 39 514.2 36.7C557 34.3 600 40.7 642.8 46.7C685.7 52.7 728.3 58.3 771.2 54.5C814 50.7 857 37.3 878.5 30.7L900 24L900 0L878.5 0C857 0 814 0 771.2 0C728.3 0 685.7 0 642.8 0C600 0 557 0 514.2 0C471.3 0 428.7 0 385.8 0C343 0 300 0 257.2 0C214.3 0 171.7 0 128.8 0C86 0 43 0 21.5 0L0 0Z" fill="#1f2937"></path></svg>