<svg id="visual" viewBox="0 0 900 600" width="900" height="600" xmlns="http://www.w3.org/2000/svg" xmlns:xlink="http://www.w3.org/1999/xlink" version="1.1"><path d="M0 353L21.5 358.2C43 363.3 86 373.7 128.8 381.2C171.7 388.7 214.3 393.3 257.2 396.8C300 400.3 343 402.7 385.8 395C428.7 387.3 471.3 369.7 514.2 368C557 366.3 600 380.7 642.8 395.5C685.7 410.3 728.3 425.7 771.2 427.8C814 430 857 419 878.5 413.5L900 408L900 601L878.5 601C857 601 814 601 771.2 601C728.3 601 685.7 601 642.8 601C600 601 557 601 514.2 601C471.3 601 428.7 601 385.8 601C343 601 300 601 257.2 601C214.3 601 171.7 601 128.8 601C86 601 43 601 21.5 601L0 601Z" fill="#1f2937"></path><path d="M0 461L21.5 460.2C43 459.3 86 457.7 128.8 456.8C171.7 456 214.3 456 257.2 446.5C300 437 343 418 385.8 414C428.7 410 471.3 421 514.2 433C557 445 600 458 642.8 457C685.7 456 728.3 441 771.2 435.5C814 430 857 434 878.5 436L900 438L900 601L878.5 601C857 601 814 601 771.2 601C728.3 601 685.7 601 642.8 601C600 601 557 601 514.2 601C471.3 601 428.7 601 385.8 601C343 601 300 601 257.2 601C214.3 601 171.7 601 128.8 601C86 601 43 601 21.5 601L0 601Z" fill="#242f3e"></path><path d="M0 498L21.5 490.5C43 483 86 468 128.8 462.3C171.7 456.7 214.3 460.3 257.2 465.5C300 470.7 343 477.3 385.8 480.2C428.7 483 471.3 482 514.2 481.3C557 480.7 600 480.3 642.8 478.3C685.7 476.3 728.3 472.7 771.2 472.7C814 472.7 857 476.3 878.5 478.2L900 480L900 601L878.5 601C857 601 814 601 771.2 601C728.3 601 685.7 601 642.8 601C600 601 557 601 514.2 601C471.3 601 428.7 601 385.8 601C343 601 300 601 257.2 601C214.3 601 171.7 601 128.8 601C86 601 43 601 21.5 601L0 601Z" fill="#293546"></path><path d="M0 536L21.5 527.3C43 518.7 86 501.3 128.8 493.7C171.7 486 214.3 488 257.2 495C300 502 343 514 385.8 521.5C428.7 529 471.3 532 514.2 529.2C557 526.3 600 517.7 642.8 514C685.7 510.3 728.3 511.7 771.2 515.3C814 519 857 525 878.5 528L900 531L900 601L878.5 601C857 601 814 601 771.2 601C728.3 601 685.7 601 642.8 601C600 601 557 601 514.2 601C471.3 601 428.7 601 385.8 601C343 601 300 601 257.2 601C214.3 601 171.7 601 128.8 601C86 601 43 601 21.5 601L0 601Z" fill="#2e3b4d"></path><path d="M0 535L21.5 539.3C43 543.7 86 552.3 128.8 550.7C171.7 549 214.3 537 257.2 536.7C300 536.3 343 547.7 385.8 555.8C428.7 564 471.3 569 514.2 570.8C557 572.7 600 571.3 642.8 563.5C685.7 555.7 728.3 541.3 771.2 540.3C814 539.3 857 551.7 878.5 557.8L900 564L900 601L878.5 601C857 601 814 601 771.2 601C728.3 601 685.7 601 642.8 601C600 601 557 601 514.2 601C471.3 601 428.7 601 385.8 601C343 601 300 601 257.2 601C214.3 601 171.7 601 128.8 601C86 601 43 601 21.5 601L0 601Z" fill="#334155"></path></svg>