<svg id="visual" viewBox="0 0 960 540" width="960" height="540" xmlns="http://www.w3.org/2000/svg" xmlns:xlink="http://www.w3.org/1999/xlink" version="1.1"><path d="M0 74L14.5 72.8C29 71.7 58 69.3 87.2 68C116.3 66.7 145.7 66.3 174.8 67C204 67.7 233 69.3 262 67.7C291 66 320 61 349 59C378 57 407 58 436.2 59.7C465.3 61.3 494.7 63.7 523.8 66.2C553 68.7 582 71.3 611 73.2C640 75 669 76 698 75.8C727 75.7 756 74.3 785.2 71.5C814.3 68.7 843.7 64.3 872.8 64.7C902 65 931 70 945.5 72.5L960 75L960 0L945.5 0C931 0 902 0 872.8 0C843.7 0 814.3 0 785.2 0C756 0 727 0 698 0C669 0 640 0 611 0C582 0 553 0 523.8 0C494.7 0 465.3 0 436.2 0C407 0 378 0 349 0C320 0 291 0 262 0C233 0 204 0 174.8 0C145.7 0 116.3 0 87.2 0C58 0 29 0 14.5 0L0 0Z" fill="#3b82f6"></path><path d="M0 62L14.5 62.8C29 63.7 58 65.3 87.2 65.7C116.3 66 145.7 65 174.8 61.3C204 57.7 233 51.3 262 50.3C291 49.3 320 53.7 349 57.5C378 61.3 407 64.7 436.2 67.2C465.3 69.7 494.7 71.3 523.8 67.7C553 64 582 55 611 52.2C640 49.3 669 52.7 698 54.8C727 57 756 58 785.2 55.8C814.3 53.7 843.7 48.3 872.8 48.3C902 48.3 931 53.7 945.5 56.3L960 59L960 0L945.5 0C931 0 902 0 872.8 0C843.7 0 814.3 0 785.2 0C756 0 727 0 698 0C669 0 640 0 611 0C582 0 553 0 523.8 0C494.7 0 465.3 0 436.2 0C407 0 378 0 349 0C320 0 291 0 262 0C233 0 204 0 174.8 0C145.7 0 116.3 0 87.2 0C58 0 29 0 14.5 0L0 0Z" fill="#296cc3"></path><path d="M0 55L14.5 51.7C29 48.3 58 41.7 87.2 38.8C116.3 36 145.7 37 174.8 38.3C204 39.7 233 41.3 262 40.2C291 39 320 35 349 34.7C378 34.3 407 37.7 436.2 41.5C465.3 45.3 494.7 49.7 523.8 51.3C553 53 582 52 611 49.5C640 47 669 43 698 41.7C727 40.3 756 41.7 785.2 42.8C814.3 44 843.7 45 872.8 45.8C902 46.7 931 47.3 945.5 47.7L960 48L960 0L945.5 0C931 0 902 0 872.8 0C843.7 0 814.3 0 785.2 0C756 0 727 0 698 0C669 0 640 0 611 0C582 0 553 0 523.8 0C494.7 0 465.3 0 436.2 0C407 0 378 0 349 0C320 0 291 0 262 0C233 0 204 0 174.8 0C145.7 0 116.3 0 87.2 0C58 0 29 0 14.5 0L0 0Z" fill="#235592"></path><path d="M0 37L14.5 36.2C29 35.3 58 33.7 87.2 33.7C116.3 33.7 145.7 35.3 174.8 36.7C204 38 233 39 262 37.5C291 36 320 32 349 30.3C378 28.7 407 29.3 436.2 30.2C465.3 31 494.7 32 523.8 30.5C553 29 582 25 611 24C640 23 669 25 698 27C727 29 756 31 785.2 30.3C814.3 29.7 843.7 26.3 872.8 25.8C902 25.3 931 27.7 945.5 28.8L960 30L960 0L945.5 0C931 0 902 0 872.8 0C843.7 0 814.3 0 785.2 0C756 0 727 0 698 0C669 0 640 0 611 0C582 0 553 0 523.8 0C494.7 0 465.3 0 436.2 0C407 0 378 0 349 0C320 0 291 0 262 0C233 0 204 0 174.8 0C145.7 0 116.3 0 87.2 0C58 0 29 0 14.5 0L0 0Z" fill="#223f63"></path><path d="M0 11L14.5 11.3C29 11.7 58 12.3 87.2 13.7C116.3 15 145.7 17 174.8 16.3C204 15.7 233 12.3 262 10.8C291 9.3 320 9.7 349 12.2C378 14.7 407 19.3 436.2 21.2C465.3 23 494.7 22 523.8 20.5C553 19 582 17 611 15.2C640 13.3 669 11.7 698 12.7C727 13.7 756 17.3 785.2 17.2C814.3 17 843.7 13 872.8 12.2C902 11.3 931 13.7 945.5 14.8L960 16L960 0L945.5 0C931 0 902 0 872.8 0C843.7 0 814.3 0 785.2 0C756 0 727 0 698 0C669 0 640 0 611 0C582 0 553 0 523.8 0C494.7 0 465.3 0 436.2 0C407 0 378 0 349 0C320 0 291 0 262 0C233 0 204 0 174.8 0C145.7 0 116.3 0 87.2 0C58 0 29 0 14.5 0L0 0Z" fill="#1f2937"></path></svg>